<svg xmlns="http://www.w3.org/2000/svg" viewBox="0 0 256 256" role="img" aria-label="Приживётся?">
  <defs><linearGradient id="g" x1="0" y1="0" x2="1" y2="1"><stop stop-color="#0f766e"/><stop offset="1" stop-color="#22c55e"/></linearGradient></defs>
  <rect width="256" height="256" rx="56" fill="url(#g)"/>
  <path d="M128 54c38 0 70 29 70 66 0 44-37 58-52 75-6 7-9 13-9 24h-30c0-23 9-36 25-50 17-15 35-26 35-49 0-20-17-36-39-36s-40 16-40 39H58c0-40 31-69 70-69z" fill="white"/>
  <circle cx="122" cy="218" r="16" fill="white"/>
</svg>